<svg height="35" viewBox="0 0 46 35" width="46" xmlns="http://www.w3.org/2000/svg"><path d="m38.9663735 2.93124209c-2.9776621-1.36936742-6.1615194-2.36456669-9.4901549-2.93124209-.4087964.72645766-.8863877 1.70355902-1.2156695 2.48083959-3.5384249-.52304209-7.0443128-.52304209-10.5176633 0-.3292189-.77728057-.8176558-1.75438193-1.2301095-2.48083959-3.3322297.5666754-6.51974436 1.56553144-9.49740641 2.93849365-6.0059712 8.92072155-7.63409125 17.61986765-6.82002965 26.19548935 3.98347582 2.9239285 7.84394385 4.7001271 11.63926176 5.8624221.9370851-1.2676596 1.7728382-2.6152103 2.4928193-4.0354006-1.3712303-.5121338-2.6845747-1.1441353-3.9255299-1.8778445.3292189-.2397353.6512493-.490379.9623709-.7482742 7.5689442 3.4796956 15.7927951 3.4796956 23.2713161 0 .3147789.2578952.6367462.5085389.9623709.7482742-1.2446125.7373041-2.5615512 1.3693056-3.9327815 1.8815012.719981 1.4165336 1.5521399 2.7677412 2.4928194 4.0353388 3.798975-1.162295 7.6630248-2.9384318 11.6465037-5.866017.9551825-9.9413324-1.6317174-18.5605873-6.8381174-26.20274091zm-23.6077865 20.92881081c-2.272121 0-4.1354456-2.0849168-4.1354456-4.6238309 0-2.538914 1.8235359-4.6274256 4.1354456-4.6274256 2.3119728 0 4.1752343 2.0848548 4.1354456 4.6274256.0035941 2.5389141-1.8234728 4.6238309-4.1354456 4.6238309zm15.2826666 0c-2.272121 0-4.1354455-2.0849168-4.1354455-4.6238309 0-2.538914 1.8234727-4.6274256 4.1354455-4.6274256 2.3119099 0 4.1752344 2.0848548 4.1354456 4.6274256 0 2.5389141-1.8235357 4.6238309-4.1354456 4.6238309z"/></svg>