<?xml version="1.0" encoding="UTF-8"?>
<svg width="21px" height="23px" viewBox="0 0 21 23" version="1.1" xmlns="http://www.w3.org/2000/svg" xmlns:xlink="http://www.w3.org/1999/xlink">
    <title>Group 2 Copy</title>
    <g id="Page-1" stroke="none" stroke-width="1" fill="none" fill-rule="evenodd">
        <g id="Artboard" transform="translate(-4331.000000, -891.000000)" fill="#DDDDDD">
            <g id="Group-2-Copy" transform="translate(4331.078400, 891.000000)">
                <path d="M10.4215996,-1.97215226e-31 C11.2500268,5.07265313e-17 11.9215996,0.671572875 11.9215996,1.5 L11.921,18.127 L18.3340548,12.3536959 C18.9112185,11.8340153 19.7808863,11.8452222 20.3440907,12.3559258 L20.4524679,12.4647172 C21.0067939,13.0803586 20.9570879,14.0288044 20.3414466,14.5831304 L20.3414466,14.5831304 L11.4742463,22.568614 C11.2034565,22.8353827 10.8317523,23 10.4215996,23 C10.3507496,23 10.2810468,22.9950879 10.2128133,22.9855858 C10.2096796,22.9836368 10.2056732,22.9830739 10.2016685,22.9824947 C10.1586134,22.9776409 10.1169538,22.9696518 10.0759441,22.9599795 C10.0704721,22.9575299 10.0644705,22.9560945 10.0584758,22.9546215 C10.0158477,22.9451328 9.97446126,22.9328737 9.93386219,22.9189213 C9.9287018,22.9164421 9.92268705,22.9143571 9.91668261,22.9122324 C9.884737,22.901463 9.8540271,22.8892942 9.82383361,22.8761608 C9.80307638,22.8668948 9.78200019,22.8572293 9.76110328,22.8470454 C9.74381592,22.8386366 9.72672437,22.8298261 9.70982783,22.8207007 C9.68611361,22.8080995 9.66277906,22.7947666 9.639728,22.7807504 C9.61845014,22.7673513 9.59698597,22.7534612 9.57590837,22.7390472 C9.55775719,22.7273423 9.54023725,22.7148677 9.52292304,22.701968 C9.49915806,22.6833154 9.47525423,22.6642601 9.45196131,22.6445064 C9.43876127,22.6345835 9.42634175,22.6237609 9.41405479,22.6126977 L0.496316882,14.5831304 C-0.119324449,14.0288044 -0.169030391,13.0803586 0.385295553,12.4647172 C0.939621498,11.8490759 1.88806737,11.79937 2.5037087,12.3536959 L8.921,18.132 L8.92159964,1.5 C8.92159964,0.671572875 9.59317252,-5.07265313e-17 10.4215996,-1.97215226e-31 Z" id="Combined-Shape"></path>
            </g>
        </g>
    </g>
</svg>