<svg height="38" viewBox="0 0 46 38" width="46" xmlns="http://www.w3.org/2000/svg"><path d="m46 4.49823208c-1.6923444.76310874-3.5114168 1.27862843-5.4201904 1.51055436 1.9483351-1.18721799 3.4449455-3.06716838 4.1494368-5.30739774-1.8236722 1.09953997-3.8433064 1.89771828-5.9931177 2.32790465-1.7213249-1.86452174-4.1740481-3.02929335-6.8885125-3.02929335-5.2118075 0-9.4376046 4.2950614-9.4376046 9.59287588 0 .75188692.0834894 1.48413562.2444897 2.18622502-7.8434746-.4000243-14.79730497-4.21931408-19.45205263-10.02329401-.81236124 1.41680195-1.27788268 3.06459467-1.27788268 4.8227408 0 3.32831577 1.66612387 6.26455741 4.19842594 7.98482581-1.54698091-.0497976-3.0021927-.4813853-4.27455555-1.1998385-.00107286.0399771-.00107286.0801886-.00107286.1206374 0 4.6478619 3.25312754 8.5248966 7.57046309 9.4067751-.79189122.2193-1.62564246.3364312-2.4863062.3364312-.60811963 0-1.19921845-.0603186-1.77560042-.1720734 1.20106107 3.8111051 4.68625734 6.5846248 8.81614411 6.6617762-3.2298949 2.5731572-7.29906092 4.1068586-11.72081988 4.1068586-.76176284 0-1.51294199-.0455907-2.25124422-.1342011 4.1765773 2.7220863 9.13722472 4.310261 14.4667939 4.310261 17.3588181 0 26.8516237-14.6176123 26.8516237-27.2949582 0-.4159219-.0091997-.8295073-.0273685-1.24121965 1.843681-1.35227644 3.4435643-3.04168753 4.7089509-4.96559007z"/></svg>